<?xml version="1.0" encoding="UTF-8"?>
<svg data-bbox="0 0 228 72" xmlns="http://www.w3.org/2000/svg" viewBox="0 0 228 72" height="72" width="228" data-type="color">
    <g>
        <g clip-path="url(#723f5ab8-0a6c-4013-ab12-081785542cc1)">
            <path fill="#0B2350" d="M52.58 23.123 41.474 0 6.534 64.447S4.248 68.704 0 68.374v3.597h27.759l24.82-48.854z" data-color="1"/>
            <path fill="#D0A540" d="m70.114 67.744-25.15-18.32V72h25.15z" data-color="2"/>
            <path fill="#0B2350" d="m76.507 26.99 7.422 18.773c.605 1.46 1.586 2.096 2.95 2.19v1.46h-9.702v-1.46c2.568-.13 3.49-.86 2.762-2.761l-1.457-3.685h-7.927l-1.428 3.714c-.729 1.843.159 2.602 2.82 2.732v1.46h-8.114v-1.46c1.398-.095 2.409-.7 3.043-2.29l6.593-16.707-.793-1.972h3.837zm1.24 12.71-3.296-8.26-3.203 8.26z" data-color="1"/>
            <path fill="#0B2350" d="M92.62 33.854h4.754v2.002H92.62v9.56c0 1.365 1.14 1.907 2.632 1.907.635 0 1.616-.13 2.221-.318V48.5a8 8 0 0 1-4.283 1.236c-2.345 0-4.06-1.3-4.06-3.272V35.856h-2.187v-1.207c1.587-.765 3.456-2.449 4.343-4.415h1.334z" data-color="1"/>
            <path fill="#0B2350" d="m100.929 29.121-2.316-1.46v-.7l5.23-1.872h.57v21.316c0 1.083.858 1.524 2.28 1.618v1.395h-8.056v-1.395c1.428-.094 2.28-.541 2.28-1.619V29.121z" data-color="1"/>
            <path fill="#0B2350" d="m122.459 46.91.382.954c-.7.954-1.934 1.872-3.203 1.872-1.334 0-2.568-.824-3.014-2.254-.823.824-2.445 2.225-4.407 2.225-2.222 0-3.932-1.43-3.932-3.591 0-2.602 2.316-3.974 5.295-4.986l3.044-1.018V37.98c0-1.655-.952-2.732-2.727-2.732-1.11 0-1.745.76-1.745 1.684 0 .606.253 1.206.664 1.937l-2.885.794c-.605-.253-1.175-.824-1.175-1.748 0-2.225 3.202-4.386 6.593-4.386s4.659 1.395 4.659 4.097v8.418c0 .86.541 1.237 1.176 1.237.476 0 .952-.189 1.269-.383zm-8.368.413c.823 0 1.81-.189 2.539-.795v-4.862c-2.633.824-4.919 1.59-4.919 3.555 0 1.301 1.046 2.096 2.38 2.096z" data-color="1"/>
            <path fill="#0B2350" d="M123.699 36.144v-.7l5.2-1.908h.57v2.702c1.299-1.271 3.014-2.702 5.136-2.702 2.885 0 4.219 2.19 4.219 4.603v8.26c0 1.083.858 1.524 2.286 1.618v1.395h-8.021v-1.395c1.428-.094 2.25-.541 2.25-1.619v-6.893c0-2.349-.981-3.396-2.791-3.396-1.175 0-2.315.57-3.073 1.271v9.024c0 1.084.793 1.525 2.221 1.62v1.394h-7.992v-1.395c1.428-.094 2.286-.541 2.286-1.619v-8.83l-2.286-1.43z" data-color="1"/>
            <path fill="#0B2350" d="M147.579 33.854h4.754v2.002h-4.754v9.56c0 1.365 1.14 1.907 2.633 1.907.634 0 1.616-.13 2.221-.318V48.5a8 8 0 0 1-4.284 1.236c-2.344 0-4.06-1.3-4.06-3.272V35.856h-2.186v-1.207c1.586-.765 3.455-2.449 4.342-4.415h1.334z" data-color="1"/>
            <path fill="#0B2350" d="m168.222 46.91.382.954c-.699.954-1.933 1.872-3.202 1.872-1.334 0-2.568-.824-3.015-2.254-.823.824-2.444 2.225-4.407 2.225-2.221 0-3.931-1.43-3.931-3.591 0-2.602 2.315-3.974 5.294-4.986l3.044-1.018V37.98c0-1.655-.952-2.732-2.726-2.732-1.111 0-1.746.76-1.746 1.684 0 .606.253 1.206.664 1.937l-2.885.794c-.605-.253-1.175-.824-1.175-1.748 0-2.225 3.202-4.386 6.593-4.386s4.66 1.395 4.66 4.097v8.418c0 .86.54 1.237 1.175 1.237.476 0 .952-.189 1.269-.383zm-8.373.413c.822 0 1.809-.189 2.538-.795v-4.862c-2.632.824-4.918 1.59-4.918 3.555 0 1.301 1.046 2.096 2.38 2.096z" data-color="1"/>
            <path fill="#0B2350" d="M181.255 45.198c0 1.842.888 2.731 3.743 2.731 4.125 0 5.389-2.508 6.405-5.592h1.746l-1.14 7.082h-17.505v-1.46c1.968-.095 3.137-.636 3.137-2.29v-14.74c0-1.655-1.175-2.19-3.137-2.29v-1.46h9.895v1.46c-1.968.094-3.138.635-3.138 2.29v14.263z" data-color="1"/>
            <path fill="#0B2350" d="M202.662 48.023v1.395h-8.056v-1.395c1.428-.094 2.286-.541 2.286-1.619v-8.83l-2.286-1.43v-.7l5.2-1.908h.57v12.868c0 1.084.858 1.525 2.28 1.62zm-6.405-19.408c0-1.301 1.017-2.349 2.315-2.349s2.38 1.048 2.38 2.349c0 1.3-1.046 2.349-2.38 2.349s-2.315-1.083-2.315-2.35" data-color="1"/>
            <path fill="#0B2350" d="M209.86 33.854h3.679v2.002h-3.679v10.549c0 1.083.729 1.495 2.915 1.618v1.395h-8.691v-1.395c1.428-.094 2.286-.541 2.286-1.618v-10.55h-2.315v-2h2.315v-.607c0-4.957 3.584-8.165 7.768-8.165 2.027 0 3.491.918 3.491 2.32 0 1.177-.794 1.813-1.775 1.813-1.904 0-1.839-2.45-3.202-2.45-1.364 0-2.792 1.525-2.792 5.463z" data-color="1"/>
            <path fill="#0B2350" d="M223.146 46.817c1.522 0 2.98-.477 4.119-1.814l.729.666c-1.14 2.348-3.267 4.067-6.182 4.067-3.966 0-7.069-3.208-7.069-7.811 0-4.604 3.174-8.389 7.105-8.389 4.219 0 6.058 3.844 6.058 6.893h-10.054v.065c0 3.685 2.186 6.322 5.294 6.322m-5.165-7.912 6.217.03c-.029-1.937-.952-3.815-2.95-3.815-1.551 0-2.855 1.395-3.267 3.779z" data-color="1"/>
            <path fill="#11224D" d="M110.131 58.384h-.994v6.81h.994z" data-color="3"/>
            <path fill="#11224D" d="m116.953 63.523-3.15-5.14h-1.034v6.812h.993V60.05l3.12 5.145h1.058v-6.811h-.987z" data-color="3"/>
            <path fill="#11224D" d="M124.075 61.74a6 6 0 0 0-1.035-.501 8 8 0 0 1-.793-.336 1.4 1.4 0 0 1-.476-.365.77.77 0 0 1-.158-.488c0-.189.047-.342.129-.471a.9.9 0 0 1 .37-.318q.24-.117.541-.118.388.001.699.206c.206.136.376.336.523.595l.787-.489a2.1 2.1 0 0 0-.817-.895q-.51-.3-1.163-.3-.616-.001-1.081.236c-.312.159-.553.37-.729.641q-.257.407-.258.936c0 .354.076.642.229.883q.23.364.652.63.425.267 1.017.489.46.178.787.347c.217.112.388.242.505.389a.83.83 0 0 1 .182.547.97.97 0 0 1-.164.56 1.1 1.1 0 0 1-.447.382 1.5 1.5 0 0 1-.64.13q-.627.002-1.052-.342-.43-.344-.535-1.007l-.963.236q.149.908.816 1.454.67.547 1.71.547.67 0 1.181-.264.512-.267.794-.719.29-.45.288-1.042.001-.537-.235-.906a2.1 2.1 0 0 0-.664-.642z" data-color="3"/>
            <path fill="#11224D" d="M131.291 62.616q.001.585-.147.983-.15.396-.494.607-.345.212-.911.212-.563-.002-.905-.206a1.14 1.14 0 0 1-.482-.607q-.147-.397-.146-.989v-4.232h-.994v4.35q.002 1.282.647 1.937c.435.435 1.058.653 1.88.653.823 0 1.463-.224 1.892-.67.429-.448.647-1.102.647-1.973v-4.297h-.987z" data-color="3"/>
            <path fill="#11224D" d="M138.73 61.698q.504-.495.505-1.377-.001-.599-.241-1.03a1.6 1.6 0 0 0-.74-.672q-.503-.237-1.305-.235h-2.098v6.81h.994v-2.913h1.087l1.68 2.914h1.14l-1.81-3.055c.312-.1.582-.242.782-.448zm-2.885-.294v-2.131h1.004c.265 0 .506.035.711.1.206.065.376.176.5.33q.186.23.188.63-.002.396-.188.635a1 1 0 0 1-.494.336c-.205.07-.446.1-.717.1z" data-color="3"/>
            <path fill="#11224D" d="m143.954 58.384-2.645 6.81h1.093l.547-1.512h2.779l.547 1.513h1.081l-2.633-6.811zm-.682 4.409 1.069-2.961 1.064 2.96h-2.139z" data-color="3"/>
            <path fill="#11224D" d="m153.59 63.523-3.149-5.14h-1.034v6.812h.993V60.05l3.12 5.145h1.058v-6.811h-.988z" data-color="3"/>
            <path fill="#11224D" d="M158.949 59.526c.33-.212.712-.318 1.158-.318q.724-.001 1.228.36c.341.235.588.57.752.988l.929-.341a2.88 2.88 0 0 0-1.099-1.437q-.769-.52-1.81-.518c-.629 0-1.187.147-1.663.442a3 3 0 0 0-1.116 1.236q-.399.795-.4 1.854.001 1.06.4 1.855c.264.535.64.947 1.116 1.242.476.294 1.034.441 1.663.441q1.041 0 1.81-.53.765-.528 1.099-1.436l-.929-.33a2.1 2.1 0 0 1-.752.995c-.341.236-.746.36-1.228.36q-.662 0-1.158-.319a2.07 2.07 0 0 1-.758-.894c-.176-.383-.27-.842-.27-1.378s.088-.989.27-1.371a2.1 2.1 0 0 1 .758-.89z" data-color="3"/>
            <path fill="#11224D" d="M165.266 65.195h4.496v-.89h-3.503v-2.148h3.215v-.889h-3.215v-1.995h3.503v-.89h-4.496z" data-color="3"/>
            <path fill="#11224D" d="M177.571 59.526c.329-.212.711-.318 1.158-.318.481 0 .893.118 1.228.36q.503.36.752.988l.928-.341a2.87 2.87 0 0 0-1.099-1.437q-.768-.52-1.809-.518c-.629 0-1.187.147-1.663.442a3 3 0 0 0-1.117 1.236q-.397.795-.399 1.854.002 1.06.399 1.855a3 3 0 0 0 1.117 1.242c.476.294 1.034.441 1.663.441q1.041 0 1.809-.53.766-.528 1.099-1.436l-.928-.33a2.1 2.1 0 0 1-.752.995c-.341.242-.747.36-1.228.36q-.663 0-1.158-.319a2.06 2.06 0 0 1-.758-.894c-.176-.383-.27-.842-.27-1.378s.088-.989.27-1.371c.176-.383.435-.677.758-.89z" data-color="3"/>
            <path fill="#11224D" d="M188.471 58.696q-.724-.441-1.686-.442c-.641 0-1.187.148-1.663.442a3 3 0 0 0-1.117 1.236c-.264.53-.399 1.154-.399 1.86s.135 1.319.399 1.855c.265.53.641.941 1.117 1.236.476.294 1.034.441 1.663.441s1.199-.147 1.68-.441a3.03 3.03 0 0 0 1.129-1.236q.405-.795.405-1.855c0-.706-.135-1.33-.4-1.86a2.97 2.97 0 0 0-1.122-1.236zm.247 4.462a2.13 2.13 0 0 1-.758.9c-.323.213-.717.318-1.169.318s-.829-.105-1.158-.311a2 2 0 0 1-.758-.895c-.176-.389-.27-.848-.27-1.372s.088-.995.27-1.383c.176-.389.435-.683.758-.895a2.13 2.13 0 0 1 1.158-.312c.446 0 .846.106 1.169.318q.485.318.758.9.271.586.27 1.372.002.784-.27 1.366z" data-color="3"/>
            <path fill="#11224D" d="m195.752 63.393-1.934-5.01h-1.463v6.812h.993v-5.416l1.916 4.833h.964l1.915-4.833v5.416h.993v-6.811h-1.451z" data-color="3"/>
            <path fill="#11224D" d="M203.867 58.384h-2.098v6.81h.987v-2.89h1.111q1.109-.001 1.698-.506c.394-.336.588-.83.588-1.466s-.194-1.13-.582-1.454-.952-.488-1.704-.488zm.928 2.778q-.37.258-1.022.26h-1.017v-2.15h1.017q.678-.001 1.04.254c.235.17.358.441.358.812s-.123.654-.37.824z" data-color="3"/>
            <path fill="#11224D" d="m209.619 58.384-2.644 6.81h1.093l.547-1.512h2.779l.546 1.513h1.082l-2.633-6.811zm-.675 4.409 1.069-2.961 1.064 2.96h-2.139z" data-color="3"/>
            <path fill="#11224D" d="m219.262 63.523-3.155-5.14h-1.035v6.812h.999V60.05l3.121 5.145h1.051v-6.811h-.981z" data-color="3"/>
            <path fill="#11224D" d="m226.878 58.384-1.775 3.179-1.739-3.18h-1.128l2.397 4.174v2.638h.999v-2.638L228 58.384z" data-color="3"/>
        </g>
        <defs fill="none">
            <clipPath id="723f5ab8-0a6c-4013-ab12-081785542cc1">
                <path fill="#ffffff" d="M228 0v72H0V0z"/>
            </clipPath>
        </defs>
    </g>
</svg>
