<svg
    data-bbox="1 1 198 198"
    viewBox="0 0 200 200"
    height="200"
    width="200"
    xmlns="http://www.w3.org/2000/svg"
    data-type="shape"
>
    <g>
        <path
            d="M100 1C45.324 1 1 45.324 1 100s44.324 99 99 99 99-44.324 99-99S154.676 1 100 1zm0 36.36c17.26 0 19.3.065 26.12.377 6.61.302 10.22 1.405 12.62 2.336 3.18 1.236 5.45 2.714 7.83 5.096 2.38 2.382 3.86 4.652 5.1 7.834 .93 2.4 2.03 6.01 2.33 12.62.31 6.82.38 8.86.38 26.12s-.07 19.3-.38 26.12c-.3 6.61-1.4 10.22-2.33 12.62-1.24 3.18-2.72 5.45-5.1 7.83-2.38 2.38-4.65 3.86-7.83 5.1-2.4.93-6.01 2.03-12.62 2.33-6.82.31-8.86.38-26.12.38s-19.3-.07-26.12-.38c-6.61-.3-10.22-1.4-12.62-2.33-3.18-1.24-5.45-2.72-7.83-5.1-2.38-2.38-3.86-4.65-5.1-7.83-.93-2.4-2.03-6.01-2.33-12.62-.31-6.82-.38-8.86-.38-26.12s.07-19.3.38-26.12c.3-6.61 1.4-10.22 2.33-12.62 1.24-3.18 2.72-5.45 5.1-7.83 2.38-2.38 4.65-3.86 7.83-5.1 2.4-.93 6.01-2.03 12.62-2.33 6.82-.31 8.86-.38 26.12-.38zm0 16.59c-16.98 0-18.9.065-25.55.37-6.17.282-9.52 1.312-11.75 2.18-2.96 1.15-5.07 2.52-7.29 4.74-2.22 2.22-3.59 4.33-4.74 7.29-.87 2.23-1.9 5.58-2.18 11.75-.3 6.65-.37 8.57-.37 25.55s.07 18.9.37 25.55c.28 6.17 1.31 9.52 2.18 11.75 1.15 2.96 2.52 5.07 4.74 7.29 2.22 2.22 4.33 3.59 7.29 4.74 2.23.87 5.58 1.9 11.75 2.18 6.65.3 8.57.37 25.55.37s18.9-.07 25.55-.37c6.17-.28 9.52-1.31 11.75-2.18 2.96-1.15 5.07-2.52 7.29-4.74 2.22-2.22 3.59-4.33 4.74-7.29.87-2.23 1.9-5.58 2.18-11.75.3-6.65.37-8.57.37-25.55s-.07-18.9-.37-25.55c-.28-6.17-1.31-9.52-2.18-11.75-1.15-2.96-2.52-5.07-4.74-7.29-2.22-2.22-4.33-3.59-7.29-4.74-2.23-.87-5.58-1.9-11.75-2.18-6.65-.3-8.57-.37-25.55-.37zm0 42.27a28.78 28.78 0 1 1 0 57.56 28.78 28.78 0 0 1 0-57.56zm0 47.47a18.69 18.69 0 1 0 0-37.38 18.69 18.69 0 0 0 0 37.38zm36.64-68.64a6.72 6.72 0 1 1-13.44 0 6.72 6.72 0 0 1 13.44 0z"
        ></path>
    </g>
</svg>
