<svg
    data-bbox="1 1 198 198"
    viewBox="0 0 200 200"
    height="200"
    width="200"
    xmlns="http://www.w3.org/2000/svg"
    data-type="shape"
>
    <g>
        <path
            d="M100 1C45.324 1 1 45.324 1 100s44.324 99 99 99 99-44.324 99-99-44.324-99-99-99M73.433 148.487H51.269V77.195h22.164zM62.351 67.455c-7.1 0-12.841-5.757-12.841-12.846s5.741-12.853 12.841-12.853 12.841 5.757 12.841 12.853-5.757 12.846-12.841 12.846m94.079 81.032h-22.148v-34.67c0-8.269-.146-18.903-11.514-18.903-11.531 0-13.29 9.013-13.29 18.309v35.265H87.33V77.196h21.251v9.749h.305c2.958-5.607 10.185-11.514 20.965-11.514 22.437 0 26.579 14.76 26.579 33.957v39.101Z"
        ></path>
    </g>
</svg>