<svg
    data-bbox="0 0 130 130"
    viewBox="0 0 130 130"
    height="130"
    width="130"
    xmlns="http://www.w3.org/2000/svg"
    data-type="tint"
>
    <g>
        <path
            fill="#ffffff"
            d="M72.544 58.618 98.15 28.855h-6.068L69.848 54.697 52.09 28.855H31.608l26.854 39.078-26.854 31.211h6.068l23.48-27.291L79.91 99.144h20.482l-27.85-40.527zm19.541 36.167h-9.32L64.233 68.28v-.002l-2.721-3.891-21.649-30.965h9.32l17.471 24.989 2.721 3.891 22.71 32.482Z"
        ></path>
        <path
            d="M66.654 58.412 49.183 33.423h-9.32l21.648 30.964 2.722 3.891v.002l18.532 26.505h9.32l-22.71-32.482z"
        ></path>
        <path
            d="M130 65c0-1.866-.097-3.708-.251-5.534v11.068c.154-1.826.251-3.668.251-5.534"
        ></path>
        <path
            d="M65 130c2.422 0 4.809-.143 7.162-.401H57.838c2.353.258 4.74.401 7.162.401"
        ></path>
        <path
            d="M129.749 70.534V59.466C126.938 26.16 99.033 0 65 0 29.102 0 0 29.102 0 65c0 33.477 25.311 61.032 57.838 64.599h14.324c30.714-3.368 54.976-28.129 57.587-59.065M79.91 99.145 61.156 71.854l-23.48 27.291h-6.068l26.854-31.211-26.854-39.079H52.09l17.758 25.842 22.234-25.842h6.068L72.544 58.618h-.002l27.85 40.527z"
        ></path>
    </g>
</svg>