<svg
    data-bbox="1.99 1 196.02 198"
    viewBox="0 0 200 200"
    height="200"
    width="200"
    xmlns="http://www.w3.org/2000/svg"
    data-type="shape"
>
    <g>
        <path
            d="M100 1C45.871 1 1.99 45.324 1.99 100s43.881 99 98.01 99 98.01-44.324 98.01-99S154.129 1 100 1m56.348 127.969c-1.353 5.126-5.338 9.164-10.398 10.534-9.172 2.49-45.95 2.49-45.95 2.49s-36.778 0-45.95-2.49c-5.06-1.37-9.046-5.408-10.398-10.534-2.458-9.292-2.458-28.678-2.458-28.678s0-19.386 2.458-28.678c1.353-5.126 5.338-9.164 10.398-10.534 9.172-2.49 45.95-2.49 45.95-2.49s36.778 0 45.95 2.49c5.06 1.37 9.045 5.408 10.398 10.534 2.458 9.292 2.458 28.678 2.458 28.678s0 19.386-2.458 28.678"
        ></path>
        <path
            d="m88.239 118.163 30.555-17.872-30.555-17.872z"
        ></path>
    </g>
</svg>